#!OML:ASF H:\MichaelJackson\Top Level 1\Subject 1\Session 1\male.ASF
:FULLY-SPECIFIED
:DEGREES
368
root 7.93598 16.5594 11.4609 -165.478 43.1431 -159.488
lowerback 5.78208 5.49 -2.13416
upperback -0.274308 7.20574 0.621917
thorax -3.85167 3.63255 1.15821
lowerneck -14.992 5.20562 11.0123
upperneck 11.8729 5.53465 -5.47818
head 6.53376 2.74702 -2.97616
rclavicle -7.65321e-014 3.65764e-014
rhumerus -39.6939 14.0463 -105.188
rradius 94.3556
rwrist 21.4707
rhand -34.2877 -22.7276
rfingers 7.12502
rthumb -7.45728 -52.5762
lclavicle -7.65321e-014 3.65764e-014
lhumerus -58.501 -36.1906 121.963
lradius 98.5529
lwrist 32.3331
lhand 33.1371 33.6964
lfingers 7.12502
lthumb 56.503 50.689
rfemur -47.3063 3.16223 11.5018
rtibia 76.7203
rfoot 6.31924 14.4527
rtoes -34.1677
lfemur -17.8695 -2.27803 -20.395
ltibia 54.4412
lfoot -18.1867 7.34593
ltoes 16.0732
369
root 8.06133 16.5697 11.5563 -166.914 36.4989 -161.317
lowerback 5.45191 5.27972 -2.25997
upperback -0.422866 6.91914 0.569409
thorax -3.81735 3.49271 1.22578
lowerneck -14.9613 5.06244 10.8145
upperneck 12.0125 5.41349 -5.60063
head 6.56059 2.6732 -2.99887
rclavicle -4.21423e-014 -2.70347e-014
rhumerus -40.0502 13.7803 -105.382
rradius 93.9411
rwrist 21.1073
rhand -34.1025 -23.8631
rfingers 7.12502
rthumb -7.27854 -53.7179
lclavicle -4.21423e-014 -2.70347e-014
lhumerus -58.5932 -37.1286 122.524
lradius 99.1365
lwrist 32.9467
lhand 33.844 34.7023
lfingers 7.12502
lthumb 57.1257 51.1831
rfemur -45.338 4.48274 12.0484
rtibia 76.815
rfoot 7.91918 15.0139
rtoes -31.9491
lfemur -18.1842 -1.9342 -20.2068
ltibia 54.4559
lfoot -18.6755 9.10919
ltoes 15.1265
370
root 8.18903 16.572 11.6403 -168.05 29.6189 -162.887
lowerback 5.18074 4.98944 -2.37658
upperback -0.545973 6.52422 0.463577
thorax -3.77633 3.298 1.23828
lowerneck -14.85 4.8589 10.615
upperneck 12.035 5.211 -5.69341
head 6.52854 2.56214 -3.02173
rclavicle 7.39479e-014 -7.95139e-014
rhumerus -40.4964 13.6624 -105.601
rradius 93.6478
rwrist 20.8671
rhand -33.849 -24.7995
rfingers 7.12502
rthumb -7.03382 -54.6626
lclavicle 7.39479e-014 -7.95139e-014
lhumerus -58.4805 -38.0543 122.871
lradius 99.6115
lwrist 33.4869
lhand 34.5922 35.5011
lfingers 7.12502
lthumb 57.7814 51.417
rfemur -43.7894 5.40566 12.7811
rtibia 77.2353
rfoot 9.05319 15.9582
rtoes -29.3434
lfemur -18.5961 -1.74623 -20.043
ltibia 54.5143
lfoot -19.3278 10.4593
ltoes 14.3169
371
root 8.31719 16.5659 11.7143 -168.959 22.6215 -164.225
lowerback 5.01094 4.67057 -2.46031
upperback -0.626972 6.09115 0.325154
thorax -3.73925 3.08308 1.19403
lowerneck -14.7228 4.59871 10.3854
upperneck 12.0015 4.93111 -5.74988
head 6.46779 2.41475 -3.03601
rclavicle -2.46493e-014 -1.74931e-014
rhumerus -41.0186 13.6531 -105.819
rradius 93.5133
rwrist 20.6568
rhand -33.5447 -25.367
rfingers 7.12502
rthumb -6.74009 -55.2397
lclavicle -2.46493e-014 -1.74931e-014
lhumerus -58.1162 -38.938 122.998
lradius 99.9364
lwrist 33.9341
lhand 35.5288 36.0001
lfingers 7.12502
lthumb 58.5969 51.1736
rfemur -42.6551 5.99583 13.6665
rtibia 77.967
rfoot 9.52575 17.0424
rtoes -26.6509
lfemur -19.0805 -1.66736 -19.8673
ltibia 54.6336
lfoot -20.0892 11.3591
ltoes 13.4529
372
root 8.44258 16.553 11.7772 -169.708 15.5084 -165.418
lowerback 4.93741 4.32558 -2.51047
upperback -0.667102 5.62367 0.167997
thorax -3.70779 2.85006 1.10759
lowerneck -14.5763 4.28862 10.1361
upperneck 11.9543 4.58732 -5.7988
head 6.39392 2.23651 -3.05088
rclavicle 5.96354e-014 9.54166e-015
rhumerus -41.6403 13.6966 -105.999
rradius 93.5634
rwrist 20.4229
rhand -33.1683 -25.3667
rfingers 7.12502
rthumb -6.37671 -55.2507
lclavicle 5.96354e-014 9.54166e-015
lhumerus -57.5095 -39.7271 122.941
lradius 100.095
lwrist 34.3155
lhand 36.7632 36.258
lfingers 7.12502
lthumb 59.6622 50.3881
rfemur -41.9003 6.18648 14.613
rtibia 78.9764
rfoot 9.23299 18.0391
rtoes -24.3587
lfemur -19.6285 -1.76864 -19.7035
ltibia 54.8116
lfoot -20.8846 11.8004
ltoes 12.4534
373
root 8.56468 16.5349 11.8291 -170.351 8.38189 -166.478
lowerback 4.96318 3.997 -2.54094
upperback -0.65614 5.17878 0.0222065
thorax -3.681 2.62799 1.01351
lowerneck -14.4193 3.97054 9.83846
upperneck 11.9307 4.16176 -5.83874
head 6.32015 1.99355 -3.06503
rclavicle 1.55052e-014 5.24792e-014
rhumerus -42.3675 13.7273 -106.109
rradius 93.8046
rwrist 20.1244
rhand -32.7514 -24.7165
rfingers 7.12502
rthumb -5.97423 -54.6123
lclavicle 1.55052e-014 5.24792e-014
lhumerus -56.7382 -40.4286 122.796
lradius 100.088
lwrist 34.7548
lhand 37.935 36.2225
lfingers 7.12502
lthumb 60.6625 49.288
rfemur -41.4785 6.0703 15.5859
rtibia 80.2147
rfoot 8.23719 18.7493
rtoes -22.918
lfemur -20.1907 -1.98509 -19.525
ltibia 55.0415
lfoot -21.6581 11.7963
ltoes 11.2787
374
root 8.68327 16.5141 11.8703 -170.937 1.32489 -167.393
lowerback 5.1003 3.71338 -2.55492
upperback -0.591773 4.7953 -0.0756086
thorax -3.66836 2.43676 0.948203
lowerneck -14.2873 3.55761 9.49634
upperneck 11.9655 3.69403 -5.87407
head 6.2642 1.7508 -3.07111
rclavicle 5.08889e-014 2.54444e-014
rhumerus -43.1883 13.6984 -106.11
rradius 94.2135
rwrist 19.781
rhand -32.3167 -23.4593
rfingers 7.12502
rthumb -5.5545 -53.3665
lclavicle 5.08889e-014 2.54444e-014
lhumerus -55.8519 -41.036 122.619
lradius 99.9298
lwrist 35.2727
lhand 39.1347 36.1291
lfingers 7.12502
lthumb 61.6741 48.0229
rfemur -41.3392 5.74196 16.5826
rtibia 81.6205
rfoot 6.70535 19.049
rtoes -22.6724
lfemur -20.7325 -2.24106 -19.2851
ltibia 55.3098
lfoot -22.3758 11.3692
ltoes 9.99181
375
root 8.79744 16.4924 11.8988 -171.527 -5.58666 -168.212
lowerback 5.33387 3.50992 -2.6041
upperback -0.463233 4.49619 -0.119492
thorax -3.65526 2.27959 0.94748
lowerneck -14.1833 3.09431 9.08551
upperneck 12.0747 3.16448 -5.87894
head 6.23151 1.47679 -3.06112
rclavicle -1.66979e-014 2.38542e-014
rhumerus -44.083 13.5642 -105.998
rradius 94.737
rwrist 19.4179
rhand -31.9151 -21.7357
rfingers 7.12502
rthumb -5.16679 -51.6527
lclavicle -1.66979e-014 2.38542e-014
lhumerus -54.9311 -41.5747 122.47
lradius 99.6631
lwrist 35.8838
lhand 40.0973 35.996
lfingers 7.12502
lthumb 62.4758 46.8845
rfemur -41.4013 5.26908 17.5232
rtibia 83.1305
rfoot 4.84857 18.911
rtoes -23.7547
lfemur -21.1976 -2.46457 -19.0276
ltibia 55.5992
lfoot -23.0321 10.5729
ltoes 8.63643
376
root 8.90746 16.4725 11.914 -172.135 -12.3381 -168.963
lowerback 5.65392 3.36322 -2.73473
upperback -0.279611 4.2804 -0.104969
thorax -3.64724 2.17107 1.04172
lowerneck -14.0705 2.5801 8.63519
upperneck 12.2151 2.56989 -5.86043
head 6.20347 1.17094 -3.0423
rclavicle 4.49253e-014 3.02153e-014
rhumerus -45.0252 13.3123 -105.785
rradius 95.3129
rwrist 19.0409
rhand -31.5759 -19.7939
rfingers 7.12502
rthumb -4.83924 -49.7187
lclavicle 4.49253e-014 3.02153e-014
lhumerus -54.0635 -42.0796 122.389
lradius 99.3511
lwrist 36.5785
lhand 40.684 36.0222
lfingers 7.12502
lthumb 62.9597 46.2676
rfemur -41.6193 4.70288 18.358
rtibia 84.6839
rfoot 2.98992 18.3642
rtoes -25.8145
lfemur -21.5779 -2.60084 -18.77
ltibia 55.9003
lfoot -23.6095 9.451
ltoes 7.3236
377
root 9.01521 16.4556 11.9151 -172.75 -18.9259 -169.659
lowerback 6.04161 3.27385 -2.98862
upperback -0.0512048 4.13074 -0.0289926
thorax -3.64597 2.09691 1.26018
lowerneck -13.9472 2.02054 8.14268
upperneck 12.3674 1.9134 -5.78739
head 6.17467 0.837087 -3.00331
rclavicle -1.35174e-014 7.15625e-014
rhumerus -45.9711 12.9526 -105.5
rradius 95.8692
rwrist 18.6586
rhand -31.3408 -17.8853
rfingers 7.12502
rthumb -4.61225 -47.8151
lclavicle -1.35174e-014 7.15625e-014
lhumerus -53.2727 -42.5874 122.359
lradius 99.0148
lwrist 37.2715
lhand 41.0094 36.2077
lfingers 7.12502
lthumb 63.2265 46.0858
rfemur -41.9773 4.08517 19.0683
rtibia 86.2378
rfoot 1.37625 17.5394
rtoes -28.3601
lfemur -21.8909 -2.58867 -18.512
ltibia 56.2104
lfoot -24.099 8.08462
ltoes 6.03891
